<svg width="195" height="195" viewBox="0 0 195 195" fill="none" xmlns="http://www.w3.org/2000/svg">
<circle cx="97.5" cy="97.5" r="97.5" fill="black"/>
<circle cx="98.4172" cy="52.0855" r="30.0855" fill="white"/>
<rect x="64.5" y="87.4792" width="67.8342" height="80.0207" rx="27.5" fill="black" stroke="white" stroke-width="3"/>
<circle cx="98.4172" cy="52.0855" r="27.0389" fill="black"/>
<rect x="125.456" y="40.2798" width="7.61658" height="20.5648" rx="2" fill="white"/>
<rect x="63.7617" y="41.0415" width="7.61658" height="20.5648" rx="2" fill="white"/>
<rect x="80" y="101" width="36" height="25" rx="9" fill="black" stroke="white" stroke-width="2"/>
<rect x="89" y="109" width="18" height="9" rx="3" fill="white"/>
<rect x="94" y="112" width="8" height="3" rx="1" fill="black"/>
<rect x="103" y="112" width="3" height="3" rx="1" fill="black"/>
<path d="M83.7088 48.5961C83.2292 44.9992 86.0275 41.8031 89.6562 41.8031H108.851C112.427 41.8031 115.209 44.9115 114.814 48.4657L113.65 58.9404L98.4171 65.0337L85.0881 58.9404L83.7088 48.5961Z" fill="white"/>
<rect x="90" y="112" width="3" height="3" rx="1" fill="black"/>
</svg>
